<?xml version="1.0" encoding="UTF-8"?>
<svg version="1.1" xmlns="http://www.w3.org/2000/svg" width="30" height="30">
<path d="M0 0 C0.99 0.33 1.98 0.66 3 1 C2.94199219 1.60328125 2.88398438 2.2065625 2.82421875 2.828125 C2.49648775 8.06650087 2.49648775 8.06650087 4.9375 12.5625 C9.05085562 14.49325876 12.53358557 14.35030701 17 14 C16.79164195 17.64626587 15.99170491 19.00957126 13.5625 21.8125 C10.03583149 24.48936887 6.74703216 24.70932131 2.41015625 24.5 C-1.5271311 23.68318836 -3.28634241 21.92240049 -6 19 C-7.86233425 15.27533151 -7.57130829 11.05504687 -7 7 C-5.3279253 3.87421857 -3.2143765 1.60718825 0 0 Z " fill="#000000" transform="translate(10,3)"/>
<path d="M0 0 C1.625 1.375 1.625 1.375 3 3 C3 5 3 5 1.625 6.625 C0 8 0 8 -2 8 C-3.625 6.625 -3.625 6.625 -5 5 C-5 3 -5 3 -3.625 1.375 C-2 0 -2 0 0 0 Z " fill="#000000" transform="translate(26,7)"/>
<path d="M0 0 C0.66 0 1.32 0 2 0 C2 0.66 2 1.32 2 2 C2.66 2 3.32 2 4 2 C4 2.66 4 3.32 4 4 C3.34 4 2.68 4 2 4 C2 4.66 2 5.32 2 6 C1.34 6 0.68 6 0 6 C0 5.34 0 4.68 0 4 C-0.66 4 -1.32 4 -2 4 C-2 3.34 -2 2.68 -2 2 C-1.34 2 -0.68 2 0 2 C0 1.34 0 0.68 0 0 Z " fill="#000000" transform="translate(18,0)"/>
</svg>
